<svg xmlns="http://www.w3.org/2000/svg" viewBox="0 0 640 512"><path fill="white" d="M1 38L611.4 511.9c9.8-12.6 19.6-25.3 29.4-37.9c-29.1-22.6-58.1-45.1-87.2-67.7c7.4-7.4 14.9-14.9 22.3-22.3c-32-32-64-64-96-96c-10.7 0-21.3 0-32 0c0 12.1 0 24.2 0 36.3C393.1 281.6 338.2 239 283.3 196.4c-21.9-29.2-43.8-58.4-65.7-87.6c-3.2-4.3-6.4-8.5-9.6-12.8c-5.3 0-10.7 0-16 0c-12.7 0-25.3 0-38 0C112.8 64 71.6 32.1 30.4 .1C20.6 12.7 10.8 25.3 1 38zM64 146.4c0 4.5 0 9 0 13.6c5.7 0 11.5 0 17.2 0L64 146.4zM64 352c0 21.3 0 42.7 0 64c10.7 0 21.3 0 32 0c32 0 64 0 96 0c5.3 0 10.7 0 16 0c3.2-4.3 6.4-8.5 9.6-12.8c16.8-22.4 33.6-44.8 50.4-67.2c-13.3-17.8-26.7-35.5-40-53.3c-17.3 23.1-34.7 46.2-52 69.3l-80 0-32 0zM308 176c13.3 17.8 26.7 35.5 40 53.3c17.3-23.1 34.7-46.2 52-69.3c16 0 32 0 48 0c0 21.3 0 42.7 0 64c10.7 0 21.3 0 32 0c32-32 64-64 96-96c-32-32-64-64-96-96c-10.7 0-21.3 0-32 0c0 21.3 0 42.7 0 64c-21.3 0-42.7 0-64 0c-5.3 0-10.7 0-16 0l-9.6 12.8L308 176zm4.9 166.5c15.2 20.2 30.3 40.5 45.5 60.7L368 416c5.3 0 10.7 0 16 0c7.4 0 14.8 0 22.2 0l-93.3-73.5zM448 449c0 10.3 0 20.7 0 31c10.7 0 21.3 0 32 0c1.1-1.1 2.2-2.2 3.3-3.3L448 449z"/></svg>
