<svg xmlns="http://www.w3.org/2000/svg" viewBox="0 0 640 512"><path fill="white" d="M1 38L611.4 511.9c9.8-12.6 19.6-25.3 29.4-37.9c-21.6-16.8-43.2-33.6-64.9-50.4c0-2.5 0-5.1 0-7.6c0-42.7 0-85.3 0-128c0-10.7 0-21.3 0-32c-21.3 0-42.7 0-64 0c0 10.7 0 21.3 0 32c0 28.6 0 57.3 0 85.9C406.4 292 300.8 210 195.2 128c62.9 0 125.9 0 188.8 0c0 21.3 0 42.7 0 64c10.7 0 21.3 0 32 0c32-32 64-64 96-96c-32-32-64-64-96-96c-10.7 0-21.3 0-32 0c0 21.3 0 42.7 0 64c-90.4 0-180.8 0-271.2 0C85.3 42.7 57.9 21.4 30.4 .1C20.6 12.7 10.8 25.3 1 38zM64 146.4c0 25.9 0 51.7 0 77.6l0 32c21.3 0 42.7 0 64 0c0-10.7 0-21.3 0-32c0-9 0-18.1 0-27.1L64 146.4zM128 416c32 32 64 64 96 96c10.7 0 21.3 0 32 0c0-21.3 0-42.7 0-64c63.6 0 127.2 0 190.8 0c-27.1-21.3-54.2-42.7-81.2-64c-36.5 0-73 0-109.5 0c0-21.3 0-42.7 0-64c-10.7 0-21.3 0-32 0l-96 96z"/></svg>
