<svg xmlns="http://www.w3.org/2000/svg" width="90" height="90" viewBox="0 0 90 90"><path fill="white" d="M79.38,40.67,49.46,10.76a5.89,5.89,0,0,0-8.65,0L10.89,40.67a5.89,5.89,0,0,0,0,8.65L40.81,79.24a5.89,5.89,0,0,0,8.65,0L79.38,49.33a6.58,6.58,0,0,0,0-8.65M46.94,63H41.53V57.62h5.41V63m6.49-18.74c-1.44,1.8-4,2.88-5,4.69-1.08,1.44-1.08,3.24-1.08,5H41.53c0-2.88,0-5.41,1.08-7.21s3.6-2.88,5-4c4.33-4,3.24-9.73-2.88-10.09a5.54,5.54,0,0,0-5.41,5.41h-5A10.62,10.62,0,0,1,45.14,27.34C54.87,27.34,59.19,37.07,53.43,44.28Z"/></svg>
